<mxfile host="app.diagrams.net" agent="Mozilla/5.0 (X11; Linux x86_64; rv:143.0) Gecko/20100101 Firefox/143.0" version="28.2.5">
  <diagram name="Seite-1" id="HSOTe-yHmUGqH4dnBn5E">
    <mxGraphModel dx="942" dy="1200" grid="1" gridSize="10" guides="1" tooltips="1" connect="1" arrows="1" fold="1" page="1" pageScale="1" pageWidth="827" pageHeight="1169" math="0" shadow="0">
      <root>
        <mxCell id="0" />
        <mxCell id="1" parent="0" />
        <mxCell id="DMuYnkKjU3KgjkuwdBBU-1" value="Server Start / Update Trigger" style="rounded=1;whiteSpace=wrap;html=1;fillColor=#f5f5f5;strokeColor=#666666;fontSize=11;fontStyle=1" parent="1" vertex="1">
          <mxGeometry x="250" y="210" width="120" height="40" as="geometry" />
        </mxCell>
        <mxCell id="DMuYnkKjU3KgjkuwdBBU-2" value="Check&#xa;Commit Hash" style="rhombus;whiteSpace=wrap;html=1;fillColor=#fff2cc;strokeColor=#d6b656;fontSize=10" parent="1" vertex="1">
          <mxGeometry x="260" y="270" width="100" height="70" as="geometry" />
        </mxCell>
        <mxCell id="DMuYnkKjU3KgjkuwdBBU-3" style="edgeStyle=orthogonalEdgeStyle;rounded=0;orthogonalLoop=1;jettySize=auto;html=1;" parent="1" source="DMuYnkKjU3KgjkuwdBBU-1" target="DMuYnkKjU3KgjkuwdBBU-2" edge="1">
          <mxGeometry relative="1" as="geometry" />
        </mxCell>
        <mxCell id="DMuYnkKjU3KgjkuwdBBU-4" value="CHANGED" style="text;html=1;strokeColor=none;fillColor=none;align=center;verticalAlign=middle;whiteSpace=wrap;rounded=0;fontSize=9;fontColor=#d32f2f;fontStyle=1" parent="1" vertex="1">
          <mxGeometry x="170" y="290" width="60" height="20" as="geometry" />
        </mxCell>
        <mxCell id="DMuYnkKjU3KgjkuwdBBU-5" value="Swap Directories&#xa;(mtimes change)" style="rounded=1;whiteSpace=wrap;html=1;fillColor=#e1d5e7;strokeColor=#9673a6;fontSize=10" parent="1" vertex="1">
          <mxGeometry x="130" y="360" width="100" height="50" as="geometry" />
        </mxCell>
        <mxCell id="DMuYnkKjU3KgjkuwdBBU-6" style="edgeStyle=orthogonalEdgeStyle;rounded=0;orthogonalLoop=1;jettySize=auto;html=1;" parent="1" source="DMuYnkKjU3KgjkuwdBBU-2" target="DMuYnkKjU3KgjkuwdBBU-5" edge="1">
          <mxGeometry relative="1" as="geometry" />
        </mxCell>
        <mxCell id="DMuYnkKjU3KgjkuwdBBU-7" value="Warm Up Cache" style="rounded=1;whiteSpace=wrap;html=1;fillColor=#ffe6cc;strokeColor=#d79b00;fontSize=10;fontStyle=1" parent="1" vertex="1">
          <mxGeometry x="260" y="550" width="100" height="50" as="geometry" />
        </mxCell>
        <mxCell id="DMuYnkKjU3KgjkuwdBBU-8" style="edgeStyle=orthogonalEdgeStyle;rounded=0;orthogonalLoop=1;jettySize=auto;html=1;" parent="1" source="DMuYnkKjU3KgjkuwdBBU-5" target="DMuYnkKjU3KgjkuwdBBU-7" edge="1">
          <mxGeometry relative="1" as="geometry">
            <Array as="points">
              <mxPoint x="180" y="575" />
            </Array>
          </mxGeometry>
        </mxCell>
        <mxCell id="DMuYnkKjU3KgjkuwdBBU-9" value="UNCHANGED" style="text;html=1;strokeColor=none;fillColor=none;align=center;verticalAlign=middle;whiteSpace=wrap;rounded=0;fontSize=9;fontColor=#2e7d32;fontStyle=1" parent="1" vertex="1">
          <mxGeometry x="380" y="290" width="70" height="20" as="geometry" />
        </mxCell>
        <mxCell id="DMuYnkKjU3KgjkuwdBBU-10" value="Skip Swap" style="rounded=1;whiteSpace=wrap;html=1;fillColor=#d5e8d4;strokeColor=#82b366;fontSize=10" parent="1" vertex="1">
          <mxGeometry x="370" y="360" width="100" height="50" as="geometry" />
        </mxCell>
        <mxCell id="DMuYnkKjU3KgjkuwdBBU-11" style="edgeStyle=orthogonalEdgeStyle;rounded=0;orthogonalLoop=1;jettySize=auto;html=1;" parent="1" source="DMuYnkKjU3KgjkuwdBBU-2" target="DMuYnkKjU3KgjkuwdBBU-10" edge="1">
          <mxGeometry relative="1" as="geometry" />
        </mxCell>
        <mxCell id="DMuYnkKjU3KgjkuwdBBU-12" value="Check&#xa;Cache Exists?" style="rhombus;whiteSpace=wrap;html=1;fillColor=#fff2cc;strokeColor=#d6b656;fontSize=10" parent="1" vertex="1">
          <mxGeometry x="370" y="430" width="100" height="70" as="geometry" />
        </mxCell>
        <mxCell id="DMuYnkKjU3KgjkuwdBBU-13" style="edgeStyle=orthogonalEdgeStyle;rounded=0;orthogonalLoop=1;jettySize=auto;html=1;" parent="1" source="DMuYnkKjU3KgjkuwdBBU-10" target="DMuYnkKjU3KgjkuwdBBU-12" edge="1">
          <mxGeometry relative="1" as="geometry" />
        </mxCell>
        <mxCell id="DMuYnkKjU3KgjkuwdBBU-14" value="YES" style="text;html=1;strokeColor=none;fillColor=none;align=center;verticalAlign=middle;whiteSpace=wrap;rounded=0;fontSize=9;fontColor=#2e7d32;fontStyle=1" parent="1" vertex="1">
          <mxGeometry x="480" y="450" width="30" height="20" as="geometry" />
        </mxCell>
        <mxCell id="DMuYnkKjU3KgjkuwdBBU-15" value="NO" style="text;html=1;strokeColor=none;fillColor=none;align=center;verticalAlign=middle;whiteSpace=wrap;rounded=0;fontSize=9;fontColor=#d32f2f;fontStyle=1" parent="1" vertex="1">
          <mxGeometry x="330" y="450" width="30" height="20" as="geometry" />
        </mxCell>
        <mxCell id="DMuYnkKjU3KgjkuwdBBU-16" value="Use Existing&#xa;Cache" style="rounded=1;whiteSpace=wrap;html=1;fillColor=#d5e8d4;strokeColor=#82b366;fontSize=10;fontStyle=1" parent="1" vertex="1">
          <mxGeometry x="430" y="550" width="80" height="50" as="geometry" />
        </mxCell>
        <mxCell id="DMuYnkKjU3KgjkuwdBBU-17" style="edgeStyle=orthogonalEdgeStyle;rounded=0;orthogonalLoop=1;jettySize=auto;html=1;" parent="1" source="DMuYnkKjU3KgjkuwdBBU-12" target="DMuYnkKjU3KgjkuwdBBU-16" edge="1">
          <mxGeometry relative="1" as="geometry">
            <Array as="points">
              <mxPoint x="420" y="510" />
              <mxPoint x="470" y="510" />
            </Array>
          </mxGeometry>
        </mxCell>
        <mxCell id="DMuYnkKjU3KgjkuwdBBU-18" style="edgeStyle=orthogonalEdgeStyle;rounded=0;orthogonalLoop=1;jettySize=auto;html=1;entryX=1;entryY=0.5;entryDx=0;entryDy=0;" parent="1" source="DMuYnkKjU3KgjkuwdBBU-12" target="DMuYnkKjU3KgjkuwdBBU-7" edge="1">
          <mxGeometry relative="1" as="geometry">
            <Array as="points">
              <mxPoint x="420" y="575" />
            </Array>
            <mxPoint x="360" y="520" as="targetPoint" />
          </mxGeometry>
        </mxCell>
        <mxCell id="DMuYnkKjU3KgjkuwdBBU-19" value="âœ“ Cache Ready" style="rounded=1;whiteSpace=wrap;html=1;fillColor=#d5e8d4;strokeColor=#82b366;fontSize=11;fontStyle=1" parent="1" vertex="1">
          <mxGeometry x="250" y="690" width="120" height="40" as="geometry" />
        </mxCell>
        <mxCell id="DMuYnkKjU3KgjkuwdBBU-20" style="edgeStyle=orthogonalEdgeStyle;rounded=0;orthogonalLoop=1;jettySize=auto;html=1;" parent="1" source="DMuYnkKjU3KgjkuwdBBU-7" target="DMuYnkKjU3KgjkuwdBBU-19" edge="1">
          <mxGeometry relative="1" as="geometry" />
        </mxCell>
        <mxCell id="DMuYnkKjU3KgjkuwdBBU-21" style="edgeStyle=orthogonalEdgeStyle;rounded=0;orthogonalLoop=1;jettySize=auto;html=1;" parent="1" source="DMuYnkKjU3KgjkuwdBBU-16" target="DMuYnkKjU3KgjkuwdBBU-19" edge="1">
          <mxGeometry relative="1" as="geometry">
            <Array as="points">
              <mxPoint x="470" y="710" />
            </Array>
          </mxGeometry>
        </mxCell>
      </root>
    </mxGraphModel>
  </diagram>
</mxfile>
